<svg width="512" height="512" version="1.1" xmlns="http://www.w3.org/2000/svg"><path fill="rgb(255,255,255)" stroke="rgb(255,255,255)" stroke-width="1" opacity="0.7686274509803922" d="M 15.5 10 L 18 10.5 L 15.5 11 L 15.5 10 Z "></path><path fill="rgb(255,255,255)" stroke="rgb(255,255,255)" stroke-width="1" opacity="0.7686274509803922" d="M 194.5 10 L 197 10.5 L 194.5 11 L 194.5 10 Z "></path><path fill="rgb(255,255,255)" stroke="rgb(255,255,255)" stroke-width="1" opacity="0.7686274509803922" d="M 266.5 10 L 269 10.5 L 266.5 11 L 266.5 10 Z "></path><path fill="rgb(255,255,255)" stroke="rgb(255,255,255)" stroke-width="1" opacity="0.7686274509803922" d="M 494.5 10 L 497 10.5 L 494.5 11 L 494.5 10 Z "></path><path fill="rgb(255,255,255)" stroke="rgb(255,255,255)" stroke-width="1" opacity="0.7686274509803922" d="M 12.5 11 L 12.5 12 L 12.5 11 Z "></path><path fill="rgb(255,255,255)" stroke="rgb(255,255,255)" stroke-width="1" opacity="0.7686274509803922" d="M 199.5 11 L 199.5 12 L 199.5 11 Z "></path><path fill="rgb(255,255,255)" stroke="rgb(255,255,255)" stroke-width="1" opacity="0.7686274509803922" d="M 263.5 11 L 263.5 12 L 263.5 11 Z "></path><path fill="rgb(255,255,255)" stroke="rgb(255,255,255)" stroke-width="1" opacity="0.7686274509803922" d="M 499.5 11 L 499.5 12 L 499.5 11 Z "></path><path fill="rgb(255,255,255)" stroke="rgb(255,255,255)" stroke-width="1" opacity="0.7686274509803922" d="M 10.5 12 L 10.5 13 L 10.5 12 Z "></path><path fill="rgb(255,255,255)" stroke="rgb(255,255,255)" stroke-width="1" opacity="0.7686274509803922" d="M 201.5 12 L 201.5 13 L 201.5 12 Z "></path><path fill="rgb(255,255,255)" stroke="rgb(255,255,255)" stroke-width="1" opacity="0.7686274509803922" d="M 261.5 12 L 261.5 13 L 261.5 12 Z "></path><path fill="rgb(255,255,255)" stroke="rgb(255,255,255)" stroke-width="1" opacity="0.7686274509803922" d="M 501.5 12 L 501.5 13 L 501.5 12 Z "></path><path fill="rgb(255,255,255)" stroke="rgb(255,255,255)" stroke-width="1" opacity="0.7686274509803922" d="M 7.5 14 L 8 14.5 L 4.5 18 L 4 17.5 L 7.5 14 Z "></path><path fill="rgb(255,255,255)" stroke="rgb(255,255,255)" stroke-width="1" opacity="0.7686274509803922" d="M 204.5 14 L 208 17.5 L 207.5 18 L 204 14.5 L 204.5 14 Z "></path><path fill="rgb(255,255,255)" stroke="rgb(255,255,255)" stroke-width="1" opacity="0.7686274509803922" d="M 258.5 14 L 259 14.5 L 255.5 18 L 255 17.5 L 258.5 14 Z "></path><path fill="rgb(255,255,255)" stroke="rgb(255,255,255)" stroke-width="1" opacity="0.7686274509803922" d="M 504.5 14 L 508 17.5 L 507.5 18 L 504 14.5 L 504.5 14 Z "></path><path fill="rgb(255,255,255)" stroke="rgb(255,255,255)" stroke-width="1" opacity="0.7686274509803922" d="M 2.5 20 L 2.5 21 L 2.5 20 Z "></path><path fill="rgb(255,255,255)" stroke="rgb(255,255,255)" stroke-width="1" opacity="0.7686274509803922" d="M 209.5 20 L 209.5 21 L 209.5 20 Z "></path><path fill="rgb(255,255,255)" stroke="rgb(255,255,255)" stroke-width="1" opacity="0.7686274509803922" d="M 253.5 20 L 253.5 21 L 253.5 20 Z "></path><path fill="rgb(255,255,255)" stroke="rgb(255,255,255)" stroke-width="1" opacity="0.7686274509803922" d="M 509.5 20 L 509.5 21 L 509.5 20 Z "></path><path fill="rgb(255,255,255)" stroke="rgb(255,255,255)" stroke-width="1" opacity="0.7686274509803922" d="M 1.5 22 L 1.5 23 L 1.5 22 Z "></path><path fill="rgb(255,255,255)" stroke="rgb(255,255,255)" stroke-width="1" opacity="0.7686274509803922" d="M 210.5 22 L 210.5 23 L 210.5 22 Z "></path><path fill="rgb(255,255,255)" stroke="rgb(255,255,255)" stroke-width="1" opacity="0.7686274509803922" d="M 252.5 22 L 252.5 23 L 252.5 22 Z "></path><path fill="rgb(255,255,255)" stroke="rgb(255,255,255)" stroke-width="1" opacity="0.7686274509803922" d="M 510.5 22 L 510.5 23 L 510.5 22 Z "></path><path fill="rgb(255,255,255)" stroke="rgb(255,255,255)" stroke-width="1" opacity="0.7686274509803922" d="M 0.5 25 L 1 27.5 L 0 27.5 L 0.5 25 Z "></path><path fill="rgb(255,255,255)" stroke="rgb(255,255,255)" stroke-width="1" opacity="0.7686274509803922" d="M 211.5 25 L 212 27.5 L 211 27.5 L 211.5 25 Z "></path><path fill="rgb(255,255,255)" stroke="rgb(255,255,255)" stroke-width="1" opacity="0.7686274509803922" d="M 251.5 25 L 252 27.5 L 251 27.5 L 251.5 25 Z "></path><path fill="rgb(255,255,255)" stroke="rgb(255,255,255)" stroke-width="1" opacity="0.7686274509803922" d="M 511.5 25 L 512 27.5 L 511 27.5 L 511.5 25 Z "></path><path fill="rgb(255,255,255)" stroke="rgb(255,255,255)" stroke-width="1" opacity="0.7686274509803922" d="M 251.5 32 L 252 34.5 L 251 34.5 L 251.5 32 Z "></path><path fill="rgb(255,255,255)" stroke="rgb(255,255,255)" stroke-width="1" opacity="0.7686274509803922" d="M 252.5 37 L 252.5 38 L 252.5 37 Z "></path><path fill="rgb(255,255,255)" stroke="rgb(255,255,255)" stroke-width="1" opacity="0.7686274509803922" d="M 253.5 39 L 253.5 40 L 253.5 39 Z "></path><path fill="rgb(255,255,255)" stroke="rgb(255,255,255)" stroke-width="1" opacity="0.7686274509803922" d="M 255.5 42 L 259 45.5 L 258.5 46 L 255 42.5 L 255.5 42 Z "></path><path fill="rgb(255,255,255)" stroke="rgb(255,255,255)" stroke-width="1" opacity="0.7686274509803922" d="M 261.5 47 L 261.5 48 L 261.5 47 Z "></path><path fill="rgb(255,255,255)" stroke="rgb(255,255,255)" stroke-width="1" opacity="0.7686274509803922" d="M 263.5 48 L 263.5 49 L 263.5 48 Z "></path><path fill="rgb(255,255,255)" stroke="rgb(255,255,255)" stroke-width="1" opacity="0.7686274509803922" d="M 266.5 49 L 269 49.5 L 266.5 50 L 266.5 49 Z "></path><path fill="rgb(255,255,255)" stroke="rgb(255,255,255)" stroke-width="1" opacity="0.7686274509803922" d="M 172.5 112 L 173 114.5 L 172 114.5 L 172.5 112 Z "></path><path fill="rgb(255,255,255)" stroke="rgb(255,255,255)" stroke-width="1" opacity="0.7686274509803922" d="M 173.5 117 L 173.5 118 L 173.5 117 Z "></path><path fill="rgb(255,255,255)" stroke="rgb(255,255,255)" stroke-width="1" opacity="0.7686274509803922" d="M 174.5 119 L 174.5 120 L 174.5 119 Z "></path><path fill="rgb(255,255,255)" stroke="rgb(255,255,255)" stroke-width="1" opacity="0.7686274509803922" d="M 176.5 122 L 180 125.5 L 179.5 126 L 176 122.5 L 176.5 122 Z "></path><path fill="rgb(255,255,255)" stroke="rgb(255,255,255)" stroke-width="1" opacity="0.7686274509803922" d="M 182.5 127 L 182.5 128 L 182.5 127 Z "></path><path fill="rgb(255,255,255)" stroke="rgb(255,255,255)" stroke-width="1" opacity="0.7686274509803922" d="M 184.5 128 L 184.5 129 L 184.5 128 Z "></path><path fill="rgb(255,255,255)" stroke="rgb(255,255,255)" stroke-width="1" opacity="0.7686274509803922" d="M 187.5 129 L 190 129.5 L 187.5 130 L 187.5 129 Z "></path><path fill="rgb(255,255,255)" stroke="rgb(255,255,255)" stroke-width="1" opacity="0.7686274509803922" d="M 472.5 274 L 473 276.5 L 472 276.5 L 472.5 274 Z "></path><path fill="rgb(255,255,255)" stroke="rgb(255,255,255)" stroke-width="1" opacity="0.7686274509803922" d="M 511.5 274 L 512 276.5 L 511 276.5 L 511.5 274 Z "></path><path fill="rgb(255,255,255)" stroke="rgb(255,255,255)" stroke-width="1" opacity="0.7686274509803922" d="M 510.5 278 L 511 279.5 L 510 279.5 L 510.5 278 Z "></path><path fill="rgb(255,255,255)" stroke="rgb(255,255,255)" stroke-width="1" opacity="0.7686274509803922" d="M 473.5 279 L 473.5 280 L 473.5 279 Z "></path><path fill="rgb(255,255,255)" stroke="rgb(255,255,255)" stroke-width="1" opacity="0.7686274509803922" d="M 474.5 281 L 474.5 282 L 474.5 281 Z "></path><path fill="rgb(255,255,255)" stroke="rgb(255,255,255)" stroke-width="1" opacity="0.7686274509803922" d="M 509.5 281 L 509.5 282 L 509.5 281 Z "></path><path fill="rgb(255,255,255)" stroke="rgb(255,255,255)" stroke-width="1" opacity="0.7686274509803922" d="M 476.5 284 L 480 287.5 L 479.5 288 L 476 284.5 L 476.5 284 Z "></path><path fill="rgb(255,255,255)" stroke="rgb(255,255,255)" stroke-width="1" opacity="0.7686274509803922" d="M 507.5 284 L 508 284.5 L 504.5 288 L 504 287.5 L 507.5 284 Z "></path><path fill="rgb(255,255,255)" stroke="rgb(255,255,255)" stroke-width="1" opacity="0.7686274509803922" d="M 482.5 289 L 482.5 290 L 482.5 289 Z "></path><path fill="rgb(255,255,255)" stroke="rgb(255,255,255)" stroke-width="1" opacity="0.7686274509803922" d="M 501.5 289 L 501.5 290 L 501.5 289 Z "></path><path fill="rgb(255,255,255)" stroke="rgb(255,255,255)" stroke-width="1" opacity="0.7686274509803922" d="M 484.5 290 L 484.5 291 L 484.5 290 Z "></path><path fill="rgb(255,255,255)" stroke="rgb(255,255,255)" stroke-width="1" opacity="0.7686274509803922" d="M 499.5 290 L 499.5 291 L 499.5 290 Z "></path><path fill="rgb(255,255,255)" stroke="rgb(255,255,255)" stroke-width="1" opacity="0.7686274509803922" d="M 487.5 291 L 490 291.5 L 487.5 292 L 487.5 291 Z "></path><path fill="rgb(255,255,255)" stroke="rgb(255,255,255)" stroke-width="1" opacity="0.7686274509803922" d="M 494.5 291 L 497 291.5 L 494.5 292 L 494.5 291 Z "></path><path fill="rgb(255,255,255)" stroke="rgb(255,255,255)" stroke-width="1" opacity="0.7686274509803922" d="M 357.5 332 L 360 332.5 L 357.5 333 L 357.5 332 Z "></path><path fill="rgb(255,255,255)" stroke="rgb(255,255,255)" stroke-width="1" opacity="0.7686274509803922" d="M 364.5 332 L 367 332.5 L 364.5 333 L 364.5 332 Z "></path><path fill="rgb(255,255,255)" stroke="rgb(255,255,255)" stroke-width="1" opacity="0.7686274509803922" d="M 487.5 332 L 490 332.5 L 487.5 333 L 487.5 332 Z "></path><path fill="rgb(255,255,255)" stroke="rgb(255,255,255)" stroke-width="1" opacity="0.7686274509803922" d="M 494.5 332 L 497 332.5 L 494.5 333 L 494.5 332 Z "></path><path fill="rgb(255,255,255)" stroke="rgb(255,255,255)" stroke-width="1" opacity="0.7686274509803922" d="M 354.5 333 L 354.5 334 L 354.5 333 Z "></path><path fill="rgb(255,255,255)" stroke="rgb(255,255,255)" stroke-width="1" opacity="0.7686274509803922" d="M 369.5 333 L 369.5 334 L 369.5 333 Z "></path><path fill="rgb(255,255,255)" stroke="rgb(255,255,255)" stroke-width="1" opacity="0.7686274509803922" d="M 484.5 333 L 484.5 334 L 484.5 333 Z "></path><path fill="rgb(255,255,255)" stroke="rgb(255,255,255)" stroke-width="1" opacity="0.7686274509803922" d="M 499.5 333 L 499.5 334 L 499.5 333 Z "></path><path fill="rgb(255,255,255)" stroke="rgb(255,255,255)" stroke-width="1" opacity="0.7686274509803922" d="M 352.5 334 L 352.5 335 L 352.5 334 Z "></path><path fill="rgb(255,255,255)" stroke="rgb(255,255,255)" stroke-width="1" opacity="0.7686274509803922" d="M 371.5 334 L 371.5 335 L 371.5 334 Z "></path><path fill="rgb(255,255,255)" stroke="rgb(255,255,255)" stroke-width="1" opacity="0.7686274509803922" d="M 482.5 334 L 482.5 335 L 482.5 334 Z "></path><path fill="rgb(255,255,255)" stroke="rgb(255,255,255)" stroke-width="1" opacity="0.7686274509803922" d="M 501.5 334 L 501.5 335 L 501.5 334 Z "></path><path fill="rgb(255,255,255)" stroke="rgb(255,255,255)" stroke-width="1" opacity="0.7686274509803922" d="M 349.5 336 L 350 336.5 L 346.5 340 L 346 339.5 L 349.5 336 Z "></path><path fill="rgb(255,255,255)" stroke="rgb(255,255,255)" stroke-width="1" opacity="0.7686274509803922" d="M 374.5 336 L 427.5 388 L 479.5 336 L 480 336.5 L 426.5 389 L 374 336.5 L 374.5 336 Z "></path><path fill="rgb(255,255,255)" stroke="rgb(255,255,255)" stroke-width="1" opacity="0.7686274509803922" d="M 504.5 336 L 508 339.5 L 507.5 340 L 504 336.5 L 504.5 336 Z "></path><path fill="rgb(255,255,255)" stroke="rgb(255,255,255)" stroke-width="1" opacity="0.7686274509803922" d="M 344.5 342 L 344.5 343 L 344.5 342 Z "></path><path fill="rgb(255,255,255)" stroke="rgb(255,255,255)" stroke-width="1" opacity="0.7686274509803922" d="M 509.5 342 L 509.5 343 L 509.5 342 Z "></path><path fill="rgb(255,255,255)" stroke="rgb(255,255,255)" stroke-width="1" opacity="0.7686274509803922" d="M 343.5 344 L 343.5 345 L 343.5 344 Z "></path><path fill="rgb(255,255,255)" stroke="rgb(255,255,255)" stroke-width="1" opacity="0.7686274509803922" d="M 510.5 344 L 510.5 345 L 510.5 344 Z "></path><path fill="rgb(255,255,255)" stroke="rgb(255,255,255)" stroke-width="1" opacity="0.7686274509803922" d="M 342.5 347 L 343 349.5 L 342 349.5 L 342.5 347 Z "></path><path fill="rgb(255,255,255)" stroke="rgb(255,255,255)" stroke-width="1" opacity="0.7686274509803922" d="M 511.5 347 L 512 349.5 L 511 349.5 L 511.5 347 Z "></path><path fill="rgb(255,255,255)" stroke="rgb(255,255,255)" stroke-width="1" opacity="0.7686274509803922" d="M 342.5 354 L 343 356.5 L 342 356.5 L 342.5 354 Z "></path><path fill="rgb(255,255,255)" stroke="rgb(255,255,255)" stroke-width="1" opacity="0.7686274509803922" d="M 511.5 354 L 512 356.5 L 511 356.5 L 511.5 354 Z "></path><path fill="rgb(255,255,255)" stroke="rgb(255,255,255)" stroke-width="1" opacity="0.7686274509803922" d="M 343.5 358 L 344 359.5 L 343 359.5 L 343.5 358 Z "></path><path fill="rgb(255,255,255)" stroke="rgb(255,255,255)" stroke-width="1" opacity="0.7686274509803922" d="M 510.5 359 L 510.5 360 L 510.5 359 Z "></path><path fill="rgb(255,255,255)" stroke="rgb(255,255,255)" stroke-width="1" opacity="0.7686274509803922" d="M 344.5 361 L 344.5 362 L 344.5 361 Z "></path><path fill="rgb(255,255,255)" stroke="rgb(255,255,255)" stroke-width="1" opacity="0.7686274509803922" d="M 509.5 361 L 509.5 362 L 509.5 361 Z "></path><path fill="rgb(255,255,255)" stroke="rgb(255,255,255)" stroke-width="1" opacity="0.7686274509803922" d="M 346.5 364 L 399 417.5 L 346.5 470 L 346 469.5 L 398 416.5 L 346 364.5 L 346.5 364 Z "></path><path fill="rgb(255,255,255)" stroke="rgb(255,255,255)" stroke-width="1" opacity="0.7686274509803922" d="M 507.5 364 L 508 364.5 L 456 416.5 L 508 469.5 L 507.5 470 L 455 417.5 L 507.5 364 Z "></path><path fill="rgb(255,255,255)" stroke="rgb(255,255,255)" stroke-width="1" opacity="0.7686274509803922" d="M 0.5 406 L 1 411.5 L 0 411.5 L 0.5 406 Z "></path><path fill="rgb(255,255,255)" stroke="rgb(255,255,255)" stroke-width="1" opacity="0.7686274509803922" d="M 40.5 407 L 41 409.5 L 40 409.5 L 40.5 407 Z "></path><path fill="rgb(255,255,255)" stroke="rgb(255,255,255)" stroke-width="1" opacity="0.7686274509803922" d="M 41.5 412 L 42 413.5 L 41 413.5 L 41.5 412 Z "></path><path fill="rgb(255,255,255)" stroke="rgb(255,255,255)" stroke-width="1" opacity="0.7686274509803922" d="M 1.5 415 L 2 417.5 L 1 417.5 L 1.5 415 Z "></path><path fill="rgb(255,255,255)" stroke="rgb(255,255,255)" stroke-width="1" opacity="0.7686274509803922" d="M 42.5 415 L 43 416.5 L 42 416.5 L 42.5 415 Z "></path><path fill="rgb(255,255,255)" stroke="rgb(255,255,255)" stroke-width="1" opacity="0.7686274509803922" d="M 43.5 418 L 43.5 419 L 43.5 418 Z "></path><path fill="rgb(255,255,255)" stroke="rgb(255,255,255)" stroke-width="1" opacity="0.7686274509803922" d="M 2.5 420 L 3 421.5 L 2 421.5 L 2.5 420 Z "></path><path fill="rgb(255,255,255)" stroke="rgb(255,255,255)" stroke-width="1" opacity="0.7686274509803922" d="M 44.5 420 L 44.5 421 L 44.5 420 Z "></path><path fill="rgb(255,255,255)" stroke="rgb(255,255,255)" stroke-width="1" opacity="0.7686274509803922" d="M 45.5 422 L 45.5 423 L 45.5 422 Z "></path><path fill="rgb(255,255,255)" stroke="rgb(255,255,255)" stroke-width="1" opacity="0.7686274509803922" d="M 3.5 424 L 4 425.5 L 3 425.5 L 3.5 424 Z "></path><path fill="rgb(255,255,255)" stroke="rgb(255,255,255)" stroke-width="1" opacity="0.7686274509803922" d="M 47.5 425 Q 50 426 48.5 427 Q 46 426 47.5 425 Z "></path><path fill="rgb(255,255,255)" stroke="rgb(255,255,255)" stroke-width="1" opacity="0.7686274509803922" d="M 4.5 427 L 5 428.5 L 4 428.5 L 4.5 427 Z "></path><path fill="rgb(255,255,255)" stroke="rgb(255,255,255)" stroke-width="1" opacity="0.7686274509803922" d="M 5.5 430 L 5.5 431 L 5.5 430 Z "></path><path fill="rgb(255,255,255)" stroke="rgb(255,255,255)" stroke-width="1" opacity="0.7686274509803922" d="M 51.5 430 L 51.5 431 L 51.5 430 Z "></path><path fill="rgb(255,255,255)" stroke="rgb(255,255,255)" stroke-width="1" opacity="0.7686274509803922" d="M 6.5 433 L 6.5 434 L 6.5 433 Z "></path><path fill="rgb(255,255,255)" stroke="rgb(255,255,255)" stroke-width="1" opacity="0.7686274509803922" d="M 55.5 433 Q 58 434 56.5 435 Q 54 434 55.5 433 Z "></path><path fill="rgb(255,255,255)" stroke="rgb(255,255,255)" stroke-width="1" opacity="0.7686274509803922" d="M 7.5 435 L 7.5 436 L 7.5 435 Z "></path><path fill="rgb(255,255,255)" stroke="rgb(255,255,255)" stroke-width="1" opacity="0.7686274509803922" d="M 59.5 436 L 59.5 437 L 59.5 436 Z "></path><path fill="rgb(255,255,255)" stroke="rgb(255,255,255)" stroke-width="1" opacity="0.7686274509803922" d="M 8.5 437 L 8.5 438 L 8.5 437 Z "></path><path fill="rgb(255,255,255)" stroke="rgb(255,255,255)" stroke-width="1" opacity="0.7686274509803922" d="M 61.5 437 L 61.5 438 L 61.5 437 Z "></path><path fill="rgb(255,255,255)" stroke="rgb(255,255,255)" stroke-width="1" opacity="0.7686274509803922" d="M 63.5 438 L 63.5 439 L 63.5 438 Z "></path><path fill="rgb(255,255,255)" stroke="rgb(255,255,255)" stroke-width="1" opacity="0.7686274509803922" d="M 9.5 439 L 9.5 440 L 9.5 439 Z "></path><path fill="rgb(255,255,255)" stroke="rgb(255,255,255)" stroke-width="1" opacity="0.7686274509803922" d="M 65.5 439 L 67 439.5 L 65.5 440 L 65.5 439 Z "></path><path fill="rgb(255,255,255)" stroke="rgb(255,255,255)" stroke-width="1" opacity="0.7686274509803922" d="M 68.5 440 L 70 440.5 L 68.5 441 L 68.5 440 Z "></path><path fill="rgb(255,255,255)" stroke="rgb(255,255,255)" stroke-width="1" opacity="0.7686274509803922" d="M 10.5 441 L 10.5 442 L 10.5 441 Z "></path><path fill="rgb(255,255,255)" stroke="rgb(255,255,255)" stroke-width="1" opacity="0.7686274509803922" d="M 72.5 441 L 75 441.5 L 72.5 442 L 72.5 441 Z "></path><path fill="rgb(255,255,255)" stroke="rgb(255,255,255)" stroke-width="1" opacity="0.7686274509803922" d="M 289.5 442 L 292 442.5 L 289.5 443 L 289.5 442 Z "></path><path fill="rgb(255,255,255)" stroke="rgb(255,255,255)" stroke-width="1" opacity="0.7686274509803922" d="M 294.5 443 L 294.5 444 L 294.5 443 Z "></path><path fill="rgb(255,255,255)" stroke="rgb(255,255,255)" stroke-width="1" opacity="0.7686274509803922" d="M 12.5 444 L 12.5 445 L 12.5 444 Z "></path><path fill="rgb(255,255,255)" stroke="rgb(255,255,255)" stroke-width="1" opacity="0.7686274509803922" d="M 296.5 444 L 296.5 445 L 296.5 444 Z "></path><path fill="rgb(255,255,255)" stroke="rgb(255,255,255)" stroke-width="1" opacity="0.7686274509803922" d="M 426.5 445 L 480 497.5 L 479.5 498 L 427.5 446 L 374.5 498 L 374 497.5 L 426.5 445 Z "></path><path fill="rgb(255,255,255)" stroke="rgb(255,255,255)" stroke-width="1" opacity="0.7686274509803922" d="M 13.5 446 Q 16 447 14.5 448 Q 12 447 13.5 446 Z "></path><path fill="rgb(255,255,255)" stroke="rgb(255,255,255)" stroke-width="1" opacity="0.7686274509803922" d="M 299.5 446 L 303 449.5 L 302.5 450 L 299 446.5 L 299.5 446 Z "></path><path fill="rgb(255,255,255)" stroke="rgb(255,255,255)" stroke-width="1" opacity="0.7686274509803922" d="M 16.5 450 Q 19 451 17.5 452 Q 15 451 16.5 450 Z "></path><path fill="rgb(255,255,255)" stroke="rgb(255,255,255)" stroke-width="1" opacity="0.7686274509803922" d="M 304.5 452 L 304.5 453 L 304.5 452 Z "></path><path fill="rgb(255,255,255)" stroke="rgb(255,255,255)" stroke-width="1" opacity="0.7686274509803922" d="M 305.5 454 L 305.5 455 L 305.5 454 Z "></path><path fill="rgb(255,255,255)" stroke="rgb(255,255,255)" stroke-width="1" opacity="0.7686274509803922" d="M 20.5 455 L 27 461.5 L 26.5 462 L 20 455.5 L 20.5 455 Z "></path><path fill="rgb(255,255,255)" stroke="rgb(255,255,255)" stroke-width="1" opacity="0.7686274509803922" d="M 306.5 457 L 307 459.5 L 306 459.5 L 306.5 457 Z "></path><path fill="rgb(255,255,255)" stroke="rgb(255,255,255)" stroke-width="1" opacity="0.7686274509803922" d="M 30.5 464 Q 33 465 31.5 466 Q 29 465 30.5 464 Z "></path><path fill="rgb(255,255,255)" stroke="rgb(255,255,255)" stroke-width="1" opacity="0.7686274509803922" d="M 306.5 464 L 307 466.5 L 306 466.5 L 306.5 464 Z "></path><path fill="rgb(255,255,255)" stroke="rgb(255,255,255)" stroke-width="1" opacity="0.7686274509803922" d="M 34.5 467 Q 37 468 35.5 469 Q 33 468 34.5 467 Z "></path><path fill="rgb(255,255,255)" stroke="rgb(255,255,255)" stroke-width="1" opacity="0.7686274509803922" d="M 305.5 468 L 306 469.5 L 305 469.5 L 305.5 468 Z "></path><path fill="rgb(255,255,255)" stroke="rgb(255,255,255)" stroke-width="1" opacity="0.7686274509803922" d="M 37.5 469 L 37.5 470 L 37.5 469 Z "></path><path fill="rgb(255,255,255)" stroke="rgb(255,255,255)" stroke-width="1" opacity="0.7686274509803922" d="M 40.5 471 L 40.5 472 L 40.5 471 Z "></path><path fill="rgb(255,255,255)" stroke="rgb(255,255,255)" stroke-width="1" opacity="0.7686274509803922" d="M 304.5 471 L 304.5 472 L 304.5 471 Z "></path><path fill="rgb(255,255,255)" stroke="rgb(255,255,255)" stroke-width="1" opacity="0.7686274509803922" d="M 42.5 472 L 42.5 473 L 42.5 472 Z "></path><path fill="rgb(255,255,255)" stroke="rgb(255,255,255)" stroke-width="1" opacity="0.7686274509803922" d="M 344.5 472 L 344.5 473 L 344.5 472 Z "></path><path fill="rgb(255,255,255)" stroke="rgb(255,255,255)" stroke-width="1" opacity="0.7686274509803922" d="M 509.5 472 L 509.5 473 L 509.5 472 Z "></path><path fill="rgb(255,255,255)" stroke="rgb(255,255,255)" stroke-width="1" opacity="0.7686274509803922" d="M 44.5 473 L 44.5 474 L 44.5 473 Z "></path><path fill="rgb(255,255,255)" stroke="rgb(255,255,255)" stroke-width="1" opacity="0.7686274509803922" d="M 46.5 474 L 46.5 475 L 46.5 474 Z "></path><path fill="rgb(255,255,255)" stroke="rgb(255,255,255)" stroke-width="1" opacity="0.7686274509803922" d="M 302.5 474 L 303 474.5 L 299.5 478 L 299 477.5 L 302.5 474 Z "></path><path fill="rgb(255,255,255)" stroke="rgb(255,255,255)" stroke-width="1" opacity="0.7686274509803922" d="M 343.5 474 L 343.5 475 L 343.5 474 Z "></path><path fill="rgb(255,255,255)" stroke="rgb(255,255,255)" stroke-width="1" opacity="0.7686274509803922" d="M 510.5 474 L 510.5 475 L 510.5 474 Z "></path><path fill="rgb(255,255,255)" stroke="rgb(255,255,255)" stroke-width="1" opacity="0.7686274509803922" d="M 48.5 475 L 48.5 476 L 48.5 475 Z "></path><path fill="rgb(255,255,255)" stroke="rgb(255,255,255)" stroke-width="1" opacity="0.7686274509803922" d="M 51.5 476 L 51.5 477 L 51.5 476 Z "></path><path fill="rgb(255,255,255)" stroke="rgb(255,255,255)" stroke-width="1" opacity="0.7686274509803922" d="M 53.5 477 L 55 477.5 L 53.5 478 L 53.5 477 Z "></path><path fill="rgb(255,255,255)" stroke="rgb(255,255,255)" stroke-width="1" opacity="0.7686274509803922" d="M 342.5 477 L 343 479.5 L 342 479.5 L 342.5 477 Z "></path><path fill="rgb(255,255,255)" stroke="rgb(255,255,255)" stroke-width="1" opacity="0.7686274509803922" d="M 511.5 477 L 512 479.5 L 511 479.5 L 511.5 477 Z "></path><path fill="rgb(255,255,255)" stroke="rgb(255,255,255)" stroke-width="1" opacity="0.7686274509803922" d="M 56.5 478 L 58 478.5 L 56.5 479 L 56.5 478 Z "></path><path fill="rgb(255,255,255)" stroke="rgb(255,255,255)" stroke-width="1" opacity="0.7686274509803922" d="M 60.5 479 L 62 479.5 L 60.5 480 L 60.5 479 Z "></path><path fill="rgb(255,255,255)" stroke="rgb(255,255,255)" stroke-width="1" opacity="0.7686274509803922" d="M 296.5 479 L 296.5 480 L 296.5 479 Z "></path><path fill="rgb(255,255,255)" stroke="rgb(255,255,255)" stroke-width="1" opacity="0.7686274509803922" d="M 64.5 480 L 67 480.5 L 64.5 481 L 64.5 480 Z "></path><path fill="rgb(255,255,255)" stroke="rgb(255,255,255)" stroke-width="1" opacity="0.7686274509803922" d="M 294.5 480 L 294.5 481 L 294.5 480 Z "></path><path fill="rgb(255,255,255)" stroke="rgb(255,255,255)" stroke-width="1" opacity="0.7686274509803922" d="M 70.5 481 L 76 481.5 L 70.5 482 L 70.5 481 Z "></path><path fill="rgb(255,255,255)" stroke="rgb(255,255,255)" stroke-width="1" opacity="0.7686274509803922" d="M 289.5 481 L 292 481.5 L 289.5 482 L 289.5 481 Z "></path><path fill="rgb(255,255,255)" stroke="rgb(255,255,255)" stroke-width="1" opacity="0.7686274509803922" d="M 342.5 484 L 343 486.5 L 342 486.5 L 342.5 484 Z "></path><path fill="rgb(255,255,255)" stroke="rgb(255,255,255)" stroke-width="1" opacity="0.7686274509803922" d="M 511.5 484 L 512 486.5 L 511 486.5 L 511.5 484 Z "></path><path fill="rgb(255,255,255)" stroke="rgb(255,255,255)" stroke-width="1" opacity="0.7686274509803922" d="M 343.5 489 L 343.5 490 L 343.5 489 Z "></path><path fill="rgb(255,255,255)" stroke="rgb(255,255,255)" stroke-width="1" opacity="0.7686274509803922" d="M 510.5 489 L 510.5 490 L 510.5 489 Z "></path><path fill="rgb(255,255,255)" stroke="rgb(255,255,255)" stroke-width="1" opacity="0.7686274509803922" d="M 344.5 491 L 344.5 492 L 344.5 491 Z "></path><path fill="rgb(255,255,255)" stroke="rgb(255,255,255)" stroke-width="1" opacity="0.7686274509803922" d="M 509.5 491 L 509.5 492 L 509.5 491 Z "></path><path fill="rgb(255,255,255)" stroke="rgb(255,255,255)" stroke-width="1" opacity="0.7686274509803922" d="M 346.5 494 L 350 497.5 L 349.5 498 L 346 494.5 L 346.5 494 Z "></path><path fill="rgb(255,255,255)" stroke="rgb(255,255,255)" stroke-width="1" opacity="0.7686274509803922" d="M 507.5 494 L 508 494.5 L 504.5 498 L 504 497.5 L 507.5 494 Z "></path><path fill="rgb(255,255,255)" stroke="rgb(255,255,255)" stroke-width="1" opacity="0.7686274509803922" d="M 352.5 499 L 352.5 500 L 352.5 499 Z "></path><path fill="rgb(255,255,255)" stroke="rgb(255,255,255)" stroke-width="1" opacity="0.7686274509803922" d="M 371.5 499 L 371.5 500 L 371.5 499 Z "></path><path fill="rgb(255,255,255)" stroke="rgb(255,255,255)" stroke-width="1" opacity="0.7686274509803922" d="M 482.5 499 L 482.5 500 L 482.5 499 Z "></path><path fill="rgb(255,255,255)" stroke="rgb(255,255,255)" stroke-width="1" opacity="0.7686274509803922" d="M 501.5 499 L 501.5 500 L 501.5 499 Z "></path><path fill="rgb(255,255,255)" stroke="rgb(255,255,255)" stroke-width="1" opacity="0.7686274509803922" d="M 354.5 500 L 354.5 501 L 354.5 500 Z "></path><path fill="rgb(255,255,255)" stroke="rgb(255,255,255)" stroke-width="1" opacity="0.7686274509803922" d="M 369.5 500 L 369.5 501 L 369.5 500 Z "></path><path fill="rgb(255,255,255)" stroke="rgb(255,255,255)" stroke-width="1" opacity="0.7686274509803922" d="M 484.5 500 L 484.5 501 L 484.5 500 Z "></path><path fill="rgb(255,255,255)" stroke="rgb(255,255,255)" stroke-width="1" opacity="0.7686274509803922" d="M 499.5 500 L 499.5 501 L 499.5 500 Z "></path><path fill="rgb(255,255,255)" stroke="rgb(255,255,255)" stroke-width="1" opacity="0.7686274509803922" d="M 357.5 501 L 360 501.5 L 357.5 502 L 357.5 501 Z "></path><path fill="rgb(255,255,255)" stroke="rgb(255,255,255)" stroke-width="1" opacity="0.7686274509803922" d="M 364.5 501 L 367 501.5 L 364.5 502 L 364.5 501 Z "></path><path fill="rgb(255,255,255)" stroke="rgb(255,255,255)" stroke-width="1" opacity="0.7686274509803922" d="M 487.5 501 L 490 501.5 L 487.5 502 L 487.5 501 Z "></path><path fill="rgb(255,255,255)" stroke="rgb(255,255,255)" stroke-width="1" opacity="0.7686274509803922" d="M 494.5 501 L 497 501.5 L 494.5 502 L 494.5 501 Z "></path><path fill="rgb(255,255,255)" stroke="rgb(255,255,255)" stroke-width="1" opacity="0" d="M 0 0 L 511.5 0 L 512 0.5 L 512 24.5 L 511 24.5 L 510 20.5 L 504.5 14 L 496.5 10 L 266.5 10 L 261.5 12 L 255 17.5 L 251 25.5 L 251 34.5 L 253 39.5 L 258.5 46 L 266.5 50 L 472 50 L 472 89.5 L 471.5 90 L 212 90 L 212 25.5 L 210 20.5 L 204.5 14 L 196.5 10 L 15.5 10 L 10.5 12 L 4 17.5 L 0.5 25 L 0 0 Z "></path><path fill="rgb(255,255,255)" stroke="rgb(255,255,255)" stroke-width="1" opacity="0" d="M 40 50 L 172 50 L 172 114.5 L 174 119.5 L 179.5 126 L 187.5 130 L 472 130 L 472 276.5 L 474 281.5 L 479.5 288 L 487.5 292 L 496.5 292 L 501.5 290 L 508 284.5 L 511.5 277 L 512 346.5 L 511 346.5 L 510 342.5 L 504.5 336 L 496.5 332 L 487.5 332 L 479.5 336 L 426.5 388 L 374.5 336 L 366.5 332 L 357.5 332 L 352.5 334 L 346 339.5 L 342 347.5 L 342 356.5 L 346 364.5 L 398 417.5 L 346 469.5 L 342 477.5 L 342 486.5 L 344 491.5 L 349.5 498 L 357.5 502 L 366.5 502 L 374.5 498 L 427.5 446 L 479.5 498 L 487.5 502 L 496.5 502 L 501.5 500 L 508 494.5 L 511.5 487 L 512 512 L 0.5 512 L 0 511.5 L 0 412.5 L 1 412.5 L 1 417.5 L 2 418.5 L 3 425.5 L 10 441.5 L 20 455.5 L 26.5 462 L 35.5 469 L 48.5 476 L 50.5 476 L 56.5 479 L 59.5 479 L 64.5 481 L 69.5 481 L 70.5 482 L 291.5 482 L 296.5 480 L 303 474.5 L 307 466.5 L 307 457.5 L 305 452.5 L 299.5 446 L 291.5 442 L 75.5 442 L 74.5 441 L 70.5 441 L 64.5 439 L 58.5 436 L 49 427.5 L 43 417.5 L 41 411.5 L 41 407.5 L 40 406.5 L 40 50 Z "></path><path fill="rgb(255,255,255)" stroke="rgb(255,255,255)" stroke-width="1" opacity="0" d="M 511.5 357 L 512 476.5 L 511 476.5 L 511 474.5 L 508 469.5 L 456 416.5 L 508 364.5 L 511.5 357 Z "></path><path fill="rgb(255,255,255)" stroke="rgb(255,255,255)" stroke-width="1" opacity="1" d="M 18.5 10 L 193.5 10 L 202.5 13 L 209 19.5 L 212 28.5 L 212 90 L 471.5 90 L 472 89.5 L 472 50 L 269.5 50 L 260.5 47 L 254 40.5 L 252 36.5 L 251 28.5 L 254 19.5 L 260.5 13 L 269.5 10 L 493.5 10 L 502.5 13 L 509 19.5 L 512 28.5 L 512 273.5 L 509 282.5 L 502.5 289 L 498.5 291 L 490.5 292 L 481.5 289 L 475 282.5 L 472 273.5 L 472 130 L 190.5 130 L 181.5 127 L 175 120.5 L 172 111.5 L 172 50 L 40 50 L 40 409.5 L 45 422.5 L 51 429.5 L 51 431 L 52.5 431 L 59.5 437 L 72.5 442 L 288.5 442 L 297.5 445 L 304 451.5 L 306 455.5 L 307 463.5 L 304 472.5 L 297.5 479 L 288.5 482 L 76.5 482 L 75.5 481 L 67.5 481 L 66.5 480 L 58.5 479 L 49.5 476 L 39.5 471 Q 26.99 463.51 18 452.5 Q 10.75 443.75 6 432.5 L 3 423.5 L 3 420.5 L 2 419.5 Q 3 415.5 1 414.5 L 1 406.5 L 0 405.5 L 0 28.5 L 3 19.5 L 9.5 13 L 18.5 10 Z "></path><path fill="rgb(255,255,255)" stroke="rgb(255,255,255)" stroke-width="1" opacity="1" d="M 360.5 332 L 368.5 333 L 372.5 335 L 427.5 389 L 481.5 335 L 485.5 333 L 493.5 332 L 502.5 335 L 509 341.5 L 511 345.5 L 512 353.5 L 509 362.5 L 455 417.5 L 509 471.5 L 511 475.5 L 512 483.5 L 509 492.5 L 502.5 499 L 498.5 501 L 490.5 502 L 481.5 499 L 426.5 445 L 372.5 499 L 368.5 501 L 360.5 502 L 351.5 499 L 345 492.5 L 343 488.5 L 342 480.5 L 345 471.5 L 399 416.5 L 345 362.5 L 343 357.5 L 342 350.5 L 345 341.5 L 351.5 335 L 360.5 332 Z "></path></svg>