<svg width="180" height="203" xmlns="http://www.w3.org/2000/svg">
    <g transform="translate(-8,-1)">
        <path fill="#fff"
            d="M75.185 10.28c-.677.71-1.54 1.82-1.919 2.45-.378.638-1.209 1.461-1.84 1.84-.637.378-1.746 1.235-2.463 1.912l-1.302 1.235v15.825c0 17.597.067 17.073-2.29 18.673l-1.269.857H45.043c-21.568 0-19.736-.252-21.708 2.968-.876 1.441-1.68 2.238-3.074 3.062-1.036.617-2.112 1.447-2.398 1.859-.465.657-.524 7.743-.524 63.776v63.033l.943.903c.518.505 1.653 1.395 2.523 1.986.877.598 2.112 1.906 2.783 2.948.657 1.03 1.547 2.059 1.978 2.291 1.375.744 101.555.425 102.399-.325.352-.312 1.195-1.401 1.88-2.424.683-1.03 1.759-2.171 2.396-2.55.631-.372 1.74-1.228 2.457-1.906l1.302-1.235v-38.356l.89-1.056c1.773-2.098 1.315-2.045 18.567-2.045 17.857 0 16.456.226 18.408-2.969.883-1.447 1.68-2.237 3.088-3.074 1.049-.618 2.118-1.461 2.39-1.866.412-.631.492-7.71.538-48.165l.053-47.42-.803-.857c-.438-.471-1.335-1.136-1.992-1.468-1.401-.73-2.77-2.131-3.52-3.605-.59-1.176-2.404-2.843-3.094-2.843-.505 0-2.398-2.085-3.414-3.765-.378-.617-1.215-1.46-1.872-1.88-2.132-1.347-3.36-2.51-4.15-3.95-.492-.884-1.548-1.933-2.823-2.796-1.116-.764-2.37-1.913-2.782-2.55-1.362-2.125-2.198-3.041-3.28-3.586-1.508-.757-2.896-2.118-3.647-3.566-.352-.684-1.042-1.56-1.547-1.952l-.903-.71H76.42l-1.235 1.3m66.088 11.708c1.753 1.826 1.866 2.882 1.866 17.611v9.822l2.643 2.63h9.602c10.652 0 11.236.112 12.411 2.39.877 1.693.744 76.44-.14 77.775-1.613 2.444 2.152 2.251-43.84 2.251-45.655 0-42.235.173-43.849-2.171l-.743-1.09V23.833l.723-1.016c1.76-2.463-.431-2.304 31.377-2.304l28.535-.007 1.415 1.481m13.234 6.634c.359.399.99 1.282 1.402 1.966.411.677 1.646 1.86 2.736 2.623 1.128.79 2.59 2.244 3.366 3.353.77 1.103 2.066 2.39 2.922 2.922 3.54 2.198 3.991 3.553 1.88 5.658l-1.481 1.48h-6.72c-10.028 0-10.035-.006-10.035-9.84 0-7.14.047-7.332 2.099-8.813 1.52-1.095 2.377-.95 3.831.651m-88.333 37.46 1.487 1.48v34.824c0 39.167-.259 35.654 2.716 37.473 1.541.95 3.4 2.942 3.4 3.646 0 .18.538.85 1.196 1.48l1.195 1.156 22.18-.1 22.18-.092 1.181.797c.651.438 1.534 1.314 1.96 1.945l.77 1.142v15.566c0 17.06.053 16.615-2.052 18.381l-1.056.883H76.799c-49.287 0-45.402.186-46.863-2.171-.923-1.494-1.149-114.584-.232-115.899 1.44-2.045.91-1.985 18.706-1.985l16.276-.007 1.488 1.48" />
        <path  d="m143.76 12.097 33.332 32.423" />
        <path
            d="m143.489 20.309.426 32.34M171.149 50.947h-30.213" />
    </g>
</svg>
