<svg t="1690466528380" class="icon" viewBox="0 0 1024 1024" version="1.1"
    xmlns="http://www.w3.org/2000/svg" p-id="18843" width="200" height="200">
    <path
        d="M441.6 951.04h-235.52c-73.4208 0-133.12-59.6992-133.12-133.12v-614.4c0-73.4208 59.6992-133.12 133.12-133.12h517.12c73.4208 0 133.12 59.6992 133.12 133.12v215.04c0 16.9472-13.7728 30.72-30.72 30.72s-30.72-13.7728-30.72-30.72v-215.04c0-39.5264-32.1536-71.68-71.68-71.68h-517.12c-39.5264 0-71.68 32.1536-71.68 71.68v614.4c0 39.5264 32.1536 71.68 71.68 71.68h235.52c16.9472 0 30.72 13.7728 30.72 30.72s-13.7728 30.72-30.72 30.72z"
        fill="#ffffff" p-id="18844"></path>
    <path
        d="M718.08 945.92c-127.0272 0-230.4-103.3728-230.4-230.4s103.3728-230.4 230.4-230.4 230.4 103.3728 230.4 230.4-103.3728 230.4-230.4 230.4z m0-399.36c-93.184 0-168.96 75.776-168.96 168.96s75.776 168.96 168.96 168.96 168.96-75.776 168.96-168.96-75.8272-168.96-168.96-168.96zM651.52 305.92h-378.88c-16.9472 0-30.72-13.7728-30.72-30.72s13.7728-30.72 30.72-30.72h378.88c16.9472 0 30.72 13.7728 30.72 30.72s-13.7728 30.72-30.72 30.72zM426.24 459.52h-153.6c-16.9472 0-30.72-13.7728-30.72-30.72s13.7728-30.72 30.72-30.72h153.6c16.9472 0 30.72 13.7728 30.72 30.72s-13.7728 30.72-30.72 30.72zM426.24 613.12h-153.6c-16.9472 0-30.72-13.7728-30.72-30.72s13.7728-30.72 30.72-30.72h153.6c16.9472 0 30.72 13.7728 30.72 30.72s-13.7728 30.72-30.72 30.72z"
        fill="#ffffff" p-id="18845"></path>
    <path
        d="M810.24 746.24h-92.16c-16.9472 0-30.72-13.7728-30.72-30.72v-92.16c0-16.9472 13.7728-30.72 30.72-30.72s30.72 13.7728 30.72 30.72v61.44h61.44c16.9472 0 30.72 13.7728 30.72 30.72s-13.7728 30.72-30.72 30.72z"
        fill="#ffffff" p-id="18846"></path>
</svg>