<svg t="1693831519632" class="icon" viewBox="0 0 1024 1024" version="1.1" xmlns="http://www.w3.org/2000/svg" p-id="2334" width="200" height="200"><path d="M837.12 112.64H161.28c-43.52 0-76.8 35.84-76.8 76.8v468.48c0 43.52 35.84 76.8 76.8 76.8h276.48v156.16H215.04c-15.36 0-25.6 12.8-25.6 25.6 0 15.36 12.8 25.6 25.6 25.6h570.88c15.36 0 25.6-12.8 25.6-25.6 0-15.36-12.8-25.6-25.6-25.6h-243.2v-156.16h294.4c43.52 0 76.8-35.84 76.8-76.8V189.44c2.56-43.52-33.28-76.8-76.8-76.8z m25.6 545.28c0 15.36-12.8 25.6-25.6 25.6H161.28c-15.36 0-25.6-12.8-25.6-25.6V189.44c0-15.36 12.8-25.6 25.6-25.6h675.84c15.36 0 25.6 12.8 25.6 25.6v468.48z m0 0" p-id="2335" fill="#ffffff"></path></svg>
